<svg width="31" height="31" viewBox="0 0 31 31" fill="none" xmlns="http://www.w3.org/2000/svg">
    <circle cx="15.5" cy="15.5" r="15.5" fill="white"/>
    <path d="M11.0262 13.3981C11.0262 13.6545 11.0539 13.8624 11.1024 14.0148C11.1579 14.1673 11.2272 14.3335 11.3242 14.5137C11.3588 14.5691 11.3727 14.6246 11.3727 14.6731C11.3727 14.7424 11.3311 14.8116 11.241 14.8809L10.8045 15.172C10.7421 15.2135 10.6798 15.2343 10.6244 15.2343C10.5551 15.2343 10.4858 15.1997 10.4165 15.1373C10.3195 15.0334 10.2363 14.9225 10.167 14.8116C10.0978 14.6939 10.0285 14.5622 9.95224 14.4028C9.41179 15.0403 8.73275 15.359 7.91513 15.359C7.3331 15.359 6.86886 15.1927 6.52934 14.8601C6.18983 14.5276 6.0166 14.0841 6.0166 13.5298C6.0166 12.9408 6.22447 12.4627 6.64714 12.1024C7.0698 11.7421 7.63105 11.562 8.34473 11.562C8.58031 11.562 8.82282 11.5828 9.0792 11.6174C9.33557 11.652 9.59887 11.7075 9.87603 11.7698V11.264C9.87603 10.7374 9.76516 10.3702 9.55036 10.1554C9.32864 9.94059 8.95447 9.83666 8.42095 9.83666C8.17843 9.83666 7.92899 9.86438 7.67262 9.92674C7.41625 9.9891 7.16681 10.0653 6.92429 10.1623C6.81343 10.2108 6.73028 10.2385 6.68178 10.2524C6.63328 10.2663 6.59863 10.2732 6.57092 10.2732C6.47391 10.2732 6.42541 10.2039 6.42541 10.0584V9.71887C6.42541 9.608 6.43927 9.52486 6.47391 9.47635C6.50856 9.42785 6.57092 9.37935 6.66792 9.33085C6.91044 9.20612 7.20145 9.10219 7.54097 9.01904C7.88049 8.92897 8.24079 8.88739 8.62189 8.88739C9.44643 8.88739 10.0492 9.07447 10.4373 9.44864C10.8184 9.8228 11.0124 10.391 11.0124 11.1532V13.3981H11.0262ZM8.21308 14.4513C8.44173 14.4513 8.67732 14.4098 8.92676 14.3266C9.1762 14.2435 9.39793 14.091 9.58501 13.8832C9.69587 13.7515 9.77902 13.606 9.82059 13.4397C9.86217 13.2734 9.88988 13.0725 9.88988 12.8369V12.5459C9.68894 12.4974 9.47415 12.4558 9.25242 12.4281C9.03069 12.4004 8.8159 12.3865 8.6011 12.3865C8.13686 12.3865 7.79734 12.4766 7.56869 12.6637C7.34003 12.8508 7.22917 13.1141 7.22917 13.4605C7.22917 13.7862 7.31231 14.0287 7.48554 14.195C7.65183 14.3682 7.89435 14.4513 8.21308 14.4513ZM13.777 15.1997C13.6523 15.1997 13.5692 15.1789 13.5137 15.1304C13.4583 15.0888 13.4098 14.9918 13.3682 14.8601L11.7399 9.50407C11.6983 9.36549 11.6776 9.27541 11.6776 9.22691C11.6776 9.11605 11.733 9.05369 11.8438 9.05369H12.5229C12.6545 9.05369 12.7446 9.07447 12.7931 9.12298C12.8485 9.16455 12.8901 9.26156 12.9317 9.39321L14.0958 13.9802L15.1767 9.39321C15.2113 9.25463 15.2529 9.16455 15.3083 9.12298C15.3638 9.0814 15.4608 9.05369 15.5855 9.05369H16.1398C16.2714 9.05369 16.3615 9.07447 16.417 9.12298C16.4724 9.16455 16.5209 9.26156 16.5486 9.39321L17.6434 14.0356L18.8421 9.39321C18.8837 9.25463 18.9322 9.16455 18.9807 9.12298C19.0361 9.0814 19.1262 9.05369 19.2509 9.05369H19.8953C20.0061 9.05369 20.0685 9.10912 20.0685 9.22691C20.0685 9.26156 20.0616 9.2962 20.0546 9.33777C20.0477 9.37935 20.0339 9.43478 20.0061 9.511L18.3363 14.8671C18.2947 15.0057 18.2462 15.0957 18.1908 15.1373C18.1353 15.1789 18.0453 15.2066 17.9275 15.2066H17.3316C17.1999 15.2066 17.1098 15.1858 17.0544 15.1373C16.999 15.0888 16.9505 14.9987 16.9228 14.8601L15.8488 10.391L14.7817 14.8532C14.7471 14.9918 14.7055 15.0819 14.6501 15.1304C14.5946 15.1789 14.4976 15.1997 14.3729 15.1997H13.777ZM22.6807 15.3867C22.3204 15.3867 21.9601 15.3452 21.6137 15.262C21.2672 15.1789 20.997 15.0888 20.8168 14.9849C20.706 14.9225 20.6298 14.8532 20.602 14.7909C20.5743 14.7285 20.5605 14.6592 20.5605 14.5968V14.2435C20.5605 14.098 20.6159 14.0287 20.7198 14.0287C20.7614 14.0287 20.803 14.0356 20.8445 14.0495C20.8861 14.0633 20.9485 14.091 21.0178 14.1188C21.2534 14.2227 21.5097 14.3058 21.78 14.3613C22.0571 14.4167 22.3273 14.4444 22.6045 14.4444C23.041 14.4444 23.3805 14.3682 23.6161 14.2158C23.8517 14.0633 23.9764 13.8416 23.9764 13.5575C23.9764 13.3635 23.9141 13.2041 23.7894 13.0725C23.6646 12.9408 23.429 12.823 23.0895 12.7122L22.0848 12.4004C21.579 12.241 21.2049 12.0054 20.9762 11.6936C20.7475 11.3887 20.6298 11.0492 20.6298 10.6889C20.6298 10.3979 20.6921 10.1415 20.8168 9.91981C20.9416 9.69808 21.1078 9.50407 21.3157 9.35163C21.5236 9.19227 21.7592 9.07447 22.0363 8.99133C22.3135 8.90818 22.6045 8.87354 22.9094 8.87354C23.0618 8.87354 23.2212 8.88046 23.3736 8.90125C23.533 8.92204 23.6785 8.94975 23.824 8.97747C23.9626 9.01211 24.0942 9.04676 24.2189 9.08833C24.3437 9.12991 24.4407 9.17148 24.51 9.21305C24.607 9.26849 24.6763 9.32392 24.7178 9.38628C24.7594 9.44171 24.7802 9.51793 24.7802 9.61493V9.94059C24.7802 10.0861 24.7248 10.1623 24.6208 10.1623C24.5654 10.1623 24.4753 10.1346 24.3575 10.0792C23.9626 9.89902 23.5191 9.80894 23.0272 9.80894C22.6322 9.80894 22.3204 9.8713 22.1056 10.003C21.8908 10.1346 21.78 10.3355 21.78 10.6196C21.78 10.8136 21.8492 10.9799 21.9878 11.1116C22.1264 11.2432 22.3828 11.3749 22.75 11.4927L23.7339 11.8045C24.2328 11.9638 24.5931 12.1856 24.8079 12.4697C25.0227 12.7537 25.1266 13.0794 25.1266 13.4397C25.1266 13.7377 25.0643 14.0079 24.9465 14.2435C24.8218 14.4791 24.6555 14.6869 24.4407 14.8532C24.2259 15.0264 23.9695 15.1512 23.6716 15.2412C23.3598 15.3382 23.0341 15.3867 22.6807 15.3867Z" fill="#252F3E"/>
    <path fill-rule="evenodd" clip-rule="evenodd" d="M23.9904 18.7543C21.7107 20.438 18.3987 21.3319 15.5509 21.3319C11.5598 21.3319 7.96372 19.856 5.24757 17.4031C5.03277 17.2091 5.22678 16.9458 5.48315 17.0983C8.42103 18.8028 12.0449 19.8352 15.7934 19.8352C18.3225 19.8352 21.101 19.3086 23.6578 18.2277C24.0389 18.0545 24.3645 18.4771 23.9904 18.7543Z" fill="#FF9900"/>
    <path fill-rule="evenodd" clip-rule="evenodd" d="M24.9396 17.6733C24.6486 17.2992 23.0134 17.4932 22.272 17.5833C22.0503 17.611 22.0156 17.417 22.2166 17.2715C23.5192 16.3568 25.6602 16.6201 25.9097 16.925C26.1591 17.2368 25.8404 19.3779 24.6209 20.4033C24.4338 20.5627 24.2537 20.4796 24.3368 20.2717C24.614 19.5857 25.2307 18.0406 24.9396 17.6733Z" fill="#FF9900"/>
</svg>
