<svg width="31" height="31" viewBox="0 0 31 31" fill="none" xmlns="http://www.w3.org/2000/svg">
    <circle cx="15.5" cy="15.5" r="15.5" fill="white"/>
    <path d="M14.741 21.9816C17.3632 21.527 19.529 21.1507 19.5539 21.1455L19.5992 21.1361L17.1235 18.2457C15.7619 16.656 14.6479 15.3492 14.6479 15.3417C14.6479 15.3274 17.2042 8.41771 17.2186 8.39313C17.2234 8.38491 18.963 11.333 21.4356 15.5394C23.7504 19.4776 25.6589 22.7246 25.6766 22.755L25.7089 22.8103L17.8411 22.8093L9.97336 22.8083L14.741 21.9816ZM5.29883 21.1002C5.29883 21.0961 6.46534 19.1085 7.89106 16.6833L10.4833 12.2737L13.5043 9.7853C15.1658 8.41666 16.5297 7.29519 16.5351 7.29315C16.5406 7.2911 16.5188 7.3451 16.4866 7.41314C16.4544 7.48118 14.9782 10.589 13.2062 14.3194L9.98443 21.1018L7.64163 21.1047C6.35309 21.1063 5.29883 21.1043 5.29883 21.1002Z" fill="#0089D6"/>
</svg>
