<svg width="17" height="16" viewBox="0 0 17 16" fill="none" xmlns="http://www.w3.org/2000/svg">
    <path d="M10.4074 8L13.8188 4.58852C14.2375 4.16989 14.2375 3.49114 13.8188 3.07216L13.0607 2.31398C12.642 1.89534 11.9633 1.89534 11.5443 2.31398L8.13281 5.72545L4.72134 2.31398C4.3027 1.89534 3.62395 1.89534 3.20497 2.31398L2.44679 3.07216C2.02815 3.4908 2.02815 4.16955 2.44679 4.58852L5.85827 8L2.44679 11.4115C2.02815 11.8301 2.02815 12.5089 2.44679 12.9278L3.20497 13.686C3.62361 14.1047 4.3027 14.1047 4.72134 13.686L8.13281 10.2745L11.5443 13.686C11.9629 14.1047 12.642 14.1047 13.0607 13.686L13.8188 12.9278C14.2375 12.5092 14.2375 11.8305 13.8188 11.4115L10.4074 8Z" fill="#19B382"/>
</svg>
