<svg width="20" height="20" viewBox="0 0 20 20" fill="none" xmlns="http://www.w3.org/2000/svg">
    <g opacity="0.8">
        <path fill-rule="evenodd" clip-rule="evenodd" d="M10.5806 0.796689C10.5806 0.430445 10.2837 0.133545 9.91745 0.133545C9.5512 0.133545 9.2543 0.430445 9.2543 0.796689V1.23712C8.54951 1.29019 7.86815 1.42715 7.22018 1.63805L7.05006 1.21354C6.91383 0.873576 6.52779 0.708423 6.18783 0.844659C5.84787 0.980895 5.68271 1.36693 5.81895 1.70689L5.99415 2.14409C5.36373 2.46284 4.77736 2.85602 4.2466 3.31208L3.91717 2.98265C3.6582 2.72367 3.23832 2.72367 2.97934 2.98265C2.72037 3.24162 2.72037 3.6615 2.97934 3.92047L3.309 4.25013C2.85426 4.7799 2.46213 5.36499 2.14408 5.99393L1.70596 5.81892C1.36585 5.68306 0.979998 5.84865 0.84414 6.18876C0.708283 6.52887 0.873865 6.91473 1.21398 7.05058L1.63796 7.21994C1.42697 7.86805 1.28995 8.54958 1.23687 9.25455H0.796445C0.4302 9.25455 0.133301 9.55145 0.133301 9.91769C0.133301 10.2839 0.4302 10.5808 0.796445 10.5808H1.23687C1.28991 11.2852 1.42673 11.9661 1.6374 12.6137L1.21349 12.7835C0.873485 12.9196 0.708208 13.3056 0.844336 13.6456C0.980463 13.9856 1.36645 14.1509 1.70645 14.0147L2.14327 13.8399C2.46158 14.4696 2.85416 15.0555 3.30951 15.5858L2.97903 15.9168C2.72023 16.1759 2.72051 16.5958 2.97965 16.8546C3.2388 17.1134 3.65867 17.1131 3.91748 16.854L4.24719 16.5238C4.77762 16.9795 5.36357 17.3724 5.99351 17.691L5.81887 18.1272C5.68274 18.4672 5.84802 18.8531 6.18803 18.9893C6.52803 19.1254 6.91402 18.9601 7.05014 18.6201L7.2195 18.1971C7.86767 18.4081 8.54926 18.5452 9.2543 18.5983V19.0364C9.2543 19.4026 9.5512 19.6995 9.91745 19.6995C10.2837 19.6995 10.5806 19.4026 10.5806 19.0364V18.5983C11.2853 18.5452 11.9665 18.4083 12.6144 18.1974L12.783 18.6196C12.9189 18.9597 13.3047 19.1253 13.6448 18.9895C13.985 18.8536 14.1505 18.4678 14.0147 18.1276L13.8404 17.6914C14.4696 17.3734 15.0549 16.9811 15.5848 16.5263L15.9128 16.8547C16.1716 17.1139 16.5915 17.1141 16.8507 16.8553C17.1098 16.5965 17.1101 16.1767 16.8513 15.9175L16.5229 15.5887C16.9792 15.0577 17.3726 14.471 17.6914 13.8402L18.1267 14.0147C18.4667 14.1509 18.8527 13.9857 18.989 13.6458C19.1252 13.3058 18.96 12.9198 18.6201 12.7835L18.1973 12.6141C18.4081 11.9664 18.545 11.2853 18.598 10.5808H19.0362C19.4024 10.5808 19.6993 10.2839 19.6993 9.91769C19.6993 9.55145 19.4024 9.25455 19.0362 9.25455H18.5978C18.5442 8.54811 18.4053 7.868 18.1913 7.22174L18.6196 7.0505C18.9597 6.91454 19.1251 6.52863 18.9891 6.18856C18.8532 5.84849 18.4673 5.68303 18.1272 5.819L17.6775 5.9988C17.3573 5.37661 16.9631 4.7963 16.5059 4.26632L16.851 3.92124C17.1099 3.66227 17.1099 3.24239 16.851 2.98341C16.592 2.72444 16.1721 2.72444 15.9131 2.98341L15.5746 3.3219C15.0459 2.86692 14.4483 2.47436 13.8395 2.14441L14.0146 1.7064C14.1506 1.36633 13.9851 0.980428 13.645 0.844462C13.305 0.708497 12.9191 0.873958 12.7831 1.21403L12.6194 1.62354C11.9691 1.41509 11.2796 1.28587 10.5806 1.2359V0.796689ZM9.91744 2.53854C10.995 2.53854 11.9899 2.78727 12.9848 3.20207C13.8971 3.61687 14.6432 4.11432 15.3068 4.8605C16.6331 6.26944 17.2966 8.01053 17.2966 9.91769C17.2966 13.98 13.9797 17.2968 9.91744 17.2968C5.85515 17.2968 2.53829 13.98 2.53829 9.91769C2.53829 5.85541 5.85515 2.53854 9.91744 2.53854ZM6.91894 13.0501L7.99956 11.4851C8.23911 11.7261 8.59957 11.9672 8.96003 12.0874C9.31973 12.2075 9.67943 12.3277 10.0399 12.3277C10.2802 12.3277 10.5205 12.3277 10.6407 12.2075C10.7608 12.0874 10.881 11.9664 10.881 11.7254C10.881 11.606 10.7608 11.3649 10.5205 11.2447C10.4482 11.2084 10.365 11.1611 10.2743 11.1096C10.0636 10.99 9.812 10.8471 9.56004 10.7626C9.3799 10.7024 9.19957 10.6121 9.01915 10.5218C8.8393 10.4317 8.65936 10.3416 8.47941 10.2812C8.11972 10.1611 7.75925 9.79984 7.51895 9.43937C7.27511 9.08578 7.14921 8.66418 7.15925 8.23477C7.15925 7.63323 7.39879 7.03093 7.75925 6.54955C8.11895 6.0674 8.71972 5.82709 9.32049 5.70694V4.62326H10.6407V5.70694C11.481 5.82709 12.2011 6.06817 12.8011 6.6697L11.9608 8.35492C11.7785 8.17198 11.526 8.05867 11.3099 7.96165C11.2421 7.93123 11.1779 7.90241 11.1205 7.87354C11.0458 7.84858 10.9762 7.82361 10.9096 7.79972L10.9096 7.7997C10.6557 7.70863 10.4456 7.63323 10.16 7.63323C9.9205 7.63323 9.68019 7.63323 9.56004 7.75339C9.43988 7.87354 9.31973 7.99446 9.31973 8.23554C9.31973 8.35492 9.43988 8.596 9.67943 8.71615C9.75249 8.7528 9.83646 8.78938 9.92804 8.82928L9.92805 8.82928C10.1386 8.92102 10.3895 9.0303 10.6407 9.1983C10.8205 9.25838 11.0004 9.34849 11.1804 9.4387C11.3604 9.52891 11.5407 9.61922 11.7213 9.67968C12.081 9.91999 12.4407 10.1611 12.681 10.5215C12.9213 10.8835 13.0414 11.2447 13.0414 11.7261C13.0414 12.3277 12.8011 12.93 12.4414 13.4113C12.0817 13.8935 11.481 14.1338 10.7608 14.254V15.3376H9.43988V14.254C8.35926 14.1338 7.51895 13.7726 6.91894 13.0501Z" fill="white"/>
    </g>
</svg>
