<svg width="19" height="20" viewBox="0 0 19 20" fill="none" xmlns="http://www.w3.org/2000/svg">
    <g opacity="0.8">
        <path d="M7.30758 15.1154C6.90399 15.1154 6.57681 15.4426 6.57681 15.8462C6.57681 16.2497 6.90399 16.5769 7.30758 16.5769H8.03835C8.44194 16.5769 8.76912 16.2497 8.76912 15.8462C8.76912 15.4426 8.44194 15.1154 8.03835 15.1154H7.30758Z" fill="white"/>
        <path d="M10.2307 7.07692C10.2307 6.67333 10.5578 6.34615 10.9614 6.34615H11.6922C12.0958 6.34615 12.423 6.67333 12.423 7.07692C12.423 7.48052 12.0958 7.80769 11.6922 7.80769H10.9614C10.5578 7.80769 10.2307 7.48052 10.2307 7.07692Z" fill="white"/>
        <path fill-rule="evenodd" clip-rule="evenodd" d="M1.46143 19.5V3.42308C1.46143 1.80871 2.77013 0.5 4.3845 0.5H14.6153C16.2296 0.5 17.5384 1.80871 17.5384 3.42308V19.5H1.46143ZM4.3845 1.96154H14.6153C15.4225 1.96154 16.0768 2.61589 16.0768 3.42308V18.0385H14.6153V4.88462C14.6153 4.07743 13.9609 3.42308 13.1537 3.42308H5.84604C5.03886 3.42308 4.3845 4.07743 4.3845 4.88461V18.0385H2.92296V3.42308C2.92296 2.61589 3.57732 1.96154 4.3845 1.96154ZM5.84604 18.0385H13.1537V13.6538H5.84604V18.0385ZM13.1537 10.7308V12.1923H5.84604V10.7308H13.1537ZM13.1537 9.26923V4.88462H5.84604V9.26923H13.1537Z" fill="white"/>
    </g>
</svg>
