<svg width="17" height="16" viewBox="0 0 17 16" fill="none" xmlns="http://www.w3.org/2000/svg">
    <g clip-path="url(#clip0)">
        <path d="M6.90137 0H9.40137C9.81699 0 10.1514 0.334375 10.1514 0.75V6H12.892C13.4482 6 13.7264 6.67188 13.3326 7.06563L8.57949 11.8219C8.34512 12.0562 7.96074 12.0562 7.72637 11.8219L2.96699 7.06563C2.57324 6.67188 2.85137 6 3.40762 6H6.15137V0.75C6.15137 0.334375 6.48574 0 6.90137 0ZM16.1514 11.75V15.25C16.1514 15.6656 15.817 16 15.4014 16H0.901367C0.485742 16 0.151367 15.6656 0.151367 15.25V11.75C0.151367 11.3344 0.485742 11 0.901367 11H5.48574L7.01699 12.5312C7.64512 13.1594 8.65762 13.1594 9.28574 12.5312L10.817 11H15.4014C15.817 11 16.1514 11.3344 16.1514 11.75ZM12.2764 14.5C12.2764 14.1562 11.9951 13.875 11.6514 13.875C11.3076 13.875 11.0264 14.1562 11.0264 14.5C11.0264 14.8438 11.3076 15.125 11.6514 15.125C11.9951 15.125 12.2764 14.8438 12.2764 14.5ZM14.2764 14.5C14.2764 14.1562 13.9951 13.875 13.6514 13.875C13.3076 13.875 13.0264 14.1562 13.0264 14.5C13.0264 14.8438 13.3076 15.125 13.6514 15.125C13.9951 15.125 14.2764 14.8438 14.2764 14.5Z" fill="#19B382"/>
    </g>
    <defs>
        <clipPath id="clip0">
            <rect x="0.151367" width="16" height="16" fill="white"/>
        </clipPath>
    </defs>
</svg>
