<svg width="20" height="20" viewBox="0 0 20 20" fill="none" xmlns="http://www.w3.org/2000/svg">
    <g opacity="0.8">
        <path fill-rule="evenodd" clip-rule="evenodd" d="M9.92358 1.9232L9.93615 1.9231C11.3995 1.9231 12.7538 2.28906 13.9891 2.81834C13.9956 2.82114 14.0021 2.82403 14.0086 2.827C15.1896 3.37224 16.2625 4.18077 17.1465 5.06557C17.151 5.07008 17.1554 5.07465 17.1598 5.07927C18.8805 6.8894 19.8715 9.32951 19.8715 11.9423C19.8715 13.9364 19.2384 15.83 18.2481 17.3602C18.1064 17.5793 17.8632 17.7116 17.6023 17.7116H2.26923C2.00831 17.7116 1.76518 17.5793 1.62343 17.3602C0.633147 15.83 0 13.9364 0 11.9423C0 6.43212 4.42709 2.01302 9.92358 1.9232ZM10.7054 3.50203V4.85925C10.7054 5.28408 10.361 5.62848 9.93615 5.62848C9.51132 5.62848 9.16692 5.28408 9.16692 4.85925V3.50901C7.41823 3.69404 5.83014 4.39685 4.56125 5.46119L5.45965 6.29563C5.77093 6.58475 5.78889 7.07147 5.49977 7.38274C5.21066 7.69402 4.72394 7.71199 4.41266 7.42287L3.47603 6.55292C2.43433 7.81038 1.75168 9.37284 1.58065 11.09H2.93615C3.36099 11.09 3.70538 11.4344 3.70538 11.8592C3.70538 12.2841 3.36099 12.6285 2.93615 12.6285H1.56818C1.67854 13.9056 2.09007 15.1239 2.69953 16.1731H17.172C17.7815 15.1239 18.193 13.9056 18.3034 12.6285H16.9362C16.5113 12.6285 16.1669 12.2841 16.1669 11.8592C16.1669 11.4344 16.5113 11.09 16.9362 11.09H18.2914C18.1223 9.36859 17.4443 7.77883 16.3746 6.50791L10.4801 12.4031C10.1797 12.7036 9.69268 12.7036 9.39226 12.4032C9.09184 12.1028 9.09181 11.6158 9.39219 11.3154L15.2694 5.43737C14.6823 4.95587 14.0412 4.53772 13.3733 4.22823C12.5144 3.8611 11.6267 3.59839 10.7054 3.50203Z" fill="white"/>
    </g>
</svg>
