<svg width="31" height="31" viewBox="0 0 31 31" fill="none" xmlns="http://www.w3.org/2000/svg">
    <circle cx="15.5" cy="15.5" r="15.5" fill="white"/>
    <path d="M18.6275 11.7452L20.2756 10.1139L20.3852 9.42746C17.3821 6.72446 12.6078 7.03122 9.89975 10.0669C9.14292 10.9271 8.59335 11.9462 8.29248 13.0472L8.88252 12.9645L12.179 12.4275L12.4331 12.1701C13.1382 11.3986 14.114 10.9223 15.1617 10.8382C16.2094 10.7541 17.25 11.0686 18.0715 11.7176L18.6275 11.7452Z" fill="#EA4335"/>
    <path d="M22.6237 12.998C22.2449 11.6171 21.4669 10.3758 20.3854 9.42627L18.0719 11.7158C18.5539 12.1056 18.9403 12.5987 19.2018 13.1578C19.4632 13.7169 19.593 14.3274 19.5813 14.9434V15.3496C20.1243 15.3496 20.645 15.563 21.029 15.943C21.4129 16.323 21.6286 16.8383 21.6286 17.3757C21.6286 17.913 21.4129 18.4284 21.029 18.8084C20.645 19.1883 20.1243 19.4018 19.5813 19.4018H15.4584L15.0537 19.8368V22.2811L15.4584 22.665H19.5814C20.73 22.677 21.8519 22.3222 22.7806 21.6533C23.7093 20.9844 24.3953 20.037 24.7369 18.9517C25.0785 17.8664 25.0574 16.701 24.6767 15.6285C24.2961 14.556 23.5762 13.6335 22.6239 12.998" fill="#4285F4"/>
    <path d="M11.3413 22.6668H15.4599V19.4045H11.3413C11.0499 19.4042 10.7619 19.3419 10.4971 19.2217L9.91279 19.3987L8.25291 21.0298L8.1084 21.5849C9.03762 22.2854 10.1732 22.6655 11.3413 22.6668Z" fill="#34A853"/>
    <path d="M11.3404 12.0835C10.2247 12.0902 9.13892 12.4416 8.23476 13.0886C7.33059 13.7357 6.65318 14.646 6.29712 15.6924C5.94106 16.7389 5.92414 17.8693 6.24871 18.9258C6.57328 19.9822 7.22314 20.912 8.10754 21.5852L10.4963 19.2212C10.1928 19.0855 9.92705 18.8789 9.72191 18.6192C9.51677 18.3595 9.37836 18.0545 9.31855 17.7302C9.25874 17.4059 9.27932 17.0721 9.37853 16.7574C9.47773 16.4428 9.6526 16.1566 9.88812 15.9235C10.1236 15.6905 10.4128 15.5174 10.7308 15.4192C11.0487 15.3211 11.386 15.3007 11.7137 15.3599C12.0413 15.4191 12.3496 15.556 12.612 15.7591C12.8744 15.9621 13.0831 16.2251 13.2203 16.5255L15.6091 14.1614C15.1077 13.5127 14.4615 12.9876 13.7209 12.6272C12.9804 12.2667 12.1657 12.0806 11.3404 12.0835Z" fill="#FBBC05"/>
</svg>
