<svg width="49" height="47" viewBox="0 0 49 47" fill="none" xmlns="http://www.w3.org/2000/svg">
    <path d="M47.7374 26.8934C47.2867 26.0676 46.5168 25.478 45.5704 25.2332C44.5062 24.9584 43.3047 25.1541 42.3558 25.757L33.8412 31.1642C33.2798 29.6428 31.7627 28.6058 30.0665 28.7293L25.8983 29.0292C22.7529 29.2553 22.7162 29.2343 20.7914 28.1188C20.3612 27.8693 19.8254 27.5587 19.1624 27.1959C16.5929 25.7911 13.6872 25.2238 10.2808 25.46C7.71173 25.6386 4.85986 26.2769 1.30603 27.4689C0.860413 27.6185 0.560059 28.0359 0.560059 28.5059V41.4399C0.560059 41.7937 0.731384 42.1256 1.01935 42.3307C1.30774 42.5358 1.67773 42.5892 2.01184 42.473L6.93585 40.7666L17.6499 45.3492C19.2769 46.0418 20.7274 46.3998 22.1749 46.3998C24.435 46.3998 26.6874 45.5261 29.5884 43.6876C30.0986 43.3642 30.2502 42.6883 29.9268 42.1782C29.6034 41.6681 28.9275 41.5164 28.4174 41.8398C23.83 44.7472 21.5665 44.6387 18.5082 43.3373L7.40753 38.5889C7.15717 38.4821 6.87604 38.4718 6.61926 38.5611L2.74756 39.9031V29.2971C7.74591 27.6817 13.3792 26.5273 18.113 29.1155C18.7522 29.465 19.2529 29.7551 19.6947 30.0111C21.9501 31.3184 22.3799 31.4752 26.0555 31.2112L30.2233 30.9108C31.0744 30.8502 31.8182 31.4927 31.8793 32.3447C31.8904 32.4946 31.8781 32.6352 31.8469 32.7668C31.8434 32.78 31.84 32.7929 31.837 32.8057C31.6584 33.4649 30.9915 33.8828 30.3096 34.0195C27.7867 34.5249 25.3502 34.9748 22.9943 35.4106C21.7929 35.6323 20.5919 35.8545 19.3743 36.0844C18.7808 36.1963 18.3903 36.7684 18.5027 37.3618C18.6146 37.9557 19.1867 38.3462 19.7802 38.2338C20.9948 38.0044 22.1932 37.7831 23.3917 37.5614C25.7556 37.1247 28.2003 36.6731 30.7394 36.1643C32.2245 35.8669 33.3431 34.9581 33.8195 33.7695L43.5286 27.6035C43.976 27.3194 44.5344 27.225 45.0231 27.3514C45.2739 27.4164 45.6149 27.5711 45.8174 27.9419C46.2416 28.7186 46.2433 29.7944 45.4269 30.3473L28.4174 41.8398C27.9171 42.1782 27.7859 42.8584 28.1247 43.3587C28.4631 43.859 29.1432 43.9897 29.6436 43.6513L46.6531 32.1588C48.3279 31.0249 48.7838 28.8109 47.7374 26.8934Z" fill="#19B382"/>
    <path d="M24.4248 24.4371C31.0586 24.4371 36.4556 19.0401 36.4556 12.4058C36.4556 5.77197 31.0586 0.375 24.4248 0.375C17.791 0.375 12.3936 5.77197 12.3936 12.4058C12.3936 19.0401 17.7905 24.4371 24.4248 24.4371ZM24.4248 2.5625C29.8525 2.5625 34.2681 6.97809 34.2681 12.4058C34.2681 17.8336 29.8525 22.2496 24.4248 22.2496C18.9971 22.2496 14.5811 17.8336 14.5811 12.4058C14.5811 6.97809 18.9971 2.5625 24.4248 2.5625Z" fill="#19B382"/>
    <path d="M23.0506 13.0206L24.9621 13.8123C25.4586 14.0182 25.6953 14.5895 25.4898 15.0859C25.2838 15.5828 24.7122 15.8195 24.2161 15.6136L23.2604 15.218C22.7024 14.9868 22.0624 15.2517 21.8312 15.8097C21.6001 16.3681 21.865 17.0077 22.4234 17.2388L23.3313 17.6148V18.9683C23.3313 19.5724 23.8209 20.0621 24.4251 20.0621C25.0292 20.0621 25.5188 19.5724 25.5188 18.9683V17.7336C26.3878 17.4648 27.1364 16.8274 27.5106 15.9233C28.178 14.3122 27.4102 12.4588 25.7995 11.7914L23.888 10.9998C23.6496 10.9011 23.4629 10.7135 23.3629 10.4713C23.2625 10.229 23.2617 9.96454 23.3604 9.72571C23.4591 9.4873 23.647 9.30103 23.8889 9.20062C24.1307 9.10022 24.3956 9.09937 24.6344 9.19849L25.5897 9.59412C26.1477 9.82526 26.7877 9.56036 27.0189 9.00195C27.25 8.44397 26.9847 7.80396 26.4267 7.57281L25.5184 7.19684V5.84375C25.5184 5.23962 25.0288 4.75 24.4251 4.75C23.8209 4.75 23.3313 5.23962 23.3313 5.84375V7.07892C23.2369 7.10797 23.1437 7.1413 23.0519 7.17932C22.2696 7.50317 21.6616 8.11029 21.3395 8.88873C21.0169 9.66675 21.0178 10.5259 21.3416 11.3082C21.6655 12.0901 22.2726 12.6981 23.0506 13.0206Z" fill="#19B382"/>
</svg>
