<svg width="22" height="22" viewBox="0 0 22 22" fill="none" xmlns="http://www.w3.org/2000/svg">
    <g opacity="0.8">
        <path fill-rule="evenodd" clip-rule="evenodd" d="M10.2765 0.133545C9.37944 0.133545 8.50649 0.442987 7.85285 1.06688C7.34564 1.551 6.99911 2.19726 6.86545 2.96616H0.86423C0.460549 2.96616 0.133301 3.29341 0.133301 3.69709V9.18011C0.133301 9.58379 0.460549 9.91104 0.86423 9.91104C1.61268 9.91104 2.19385 10.1082 2.58017 10.4552C2.95277 10.7899 3.24007 11.35 3.24007 12.2877C3.24007 13.1204 2.92769 13.6069 2.52724 13.9073C2.09573 14.2309 1.48874 14.3894 0.86423 14.3894C0.460549 14.3894 0.133301 14.7167 0.133301 15.1203V20.9686C0.133301 21.3723 0.460549 21.6995 0.86423 21.6995H7.44386C7.84754 21.6995 8.17479 21.3723 8.17479 20.9686C8.17479 19.6521 9.11116 18.8669 10.1854 18.8669C10.7872 18.8669 11.2806 19.0768 11.622 19.4182C11.9615 19.7576 12.196 20.2728 12.196 20.9686C12.196 21.3723 12.5232 21.6995 12.9269 21.6995H18.2269C18.6305 21.6995 18.9578 21.3723 18.9578 20.9686V15.951C20.6036 15.5674 21.6993 13.9204 21.6993 12.2877C21.6993 10.6107 20.6366 9.12942 18.9578 8.79416V3.69709C18.9578 3.29341 18.6305 2.96616 18.2269 2.96616H13.6875C13.5539 2.19735 13.2076 1.55109 12.7005 1.06693C12.0469 0.442942 11.1739 0.133545 10.2765 0.133545ZM17.4959 4.42802V9.45426C17.4959 9.85795 17.8232 10.1852 18.2269 10.1852C19.4213 10.1852 20.2374 11.0891 20.2374 12.2877C20.2374 13.5298 19.2901 14.5725 18.2269 14.5725C17.8232 14.5725 17.4959 14.8997 17.4959 15.3034V20.2377H13.5954C13.4667 19.5063 13.1425 18.8713 12.6557 18.3845C12.0147 17.7435 11.1373 17.4051 10.1854 17.4051C8.55416 17.4051 7.0992 18.5003 6.77846 20.2377H1.59516V15.7979C2.22243 15.705 2.86221 15.4834 3.40438 15.0767C4.19185 14.4861 4.70193 13.5563 4.70193 12.2877C4.70193 11.0322 4.30385 10.0385 3.55706 9.3677C3.00641 8.87307 2.32083 8.60327 1.59516 8.49962V4.42802H7.53496C7.93864 4.42802 8.26589 4.10077 8.26589 3.69709C8.26589 2.96366 8.51766 2.4532 8.86219 2.12435C9.21384 1.78871 9.71165 1.5954 10.2765 1.5954C10.8418 1.5954 11.3395 1.78876 11.691 2.1243C12.0354 2.45308 12.2871 2.96351 12.2871 3.69709C12.2871 4.10077 12.6143 4.42802 13.018 4.42802H17.4959ZM11.5549 7.46941C11.5549 7.11604 11.2684 6.82958 10.915 6.82958C10.5617 6.82958 10.2752 7.11604 10.2752 7.46941V7.47026V10.2755H7.46915C7.11579 10.2755 6.82933 10.5619 6.82933 10.9153C6.82933 11.2686 7.11579 11.5551 7.46915 11.5551H10.2752V14.3612C10.2752 14.7145 10.5617 15.001 10.915 15.001C11.2684 15.001 11.5549 14.7145 11.5549 14.3612V11.5551H14.3609C14.7143 11.5551 15.0007 11.2686 15.0007 10.9153C15.0007 10.5619 14.7143 10.2755 14.3609 10.2755H11.5549V7.47026V7.46941Z" fill="white"/>
    </g>
</svg>
