<svg width="104" height="20" viewBox="0 0 104 20" fill="none" xmlns="http://www.w3.org/2000/svg">
    <path fill-rule="evenodd" clip-rule="evenodd" d="M43.4606 0.0449219C42.1177 0.0449219 42.1177 0.0449307 42.1177 1.38784V1.38786V1.38788C42.1177 2.09144 42.1177 2.43911 42.2915 2.61091C42.4614 2.77874 42.797 2.77874 43.4606 2.77874C44.8036 2.77874 44.8036 2.77874 44.8036 1.38786C44.8036 0.0449307 44.8036 0.0449219 43.4606 0.0449219ZM51.3741 4.31297C52.3334 4.31297 53.2446 4.45685 53.8681 4.60074C54.2998 4.74462 54.7315 4.93648 54.6835 5.17628C54.6835 5.25674 54.6498 5.3372 54.4974 5.70065L54.4969 5.70191C54.4677 5.77149 54.4342 5.85142 54.3957 5.94367C54.1559 6.6631 54.06 6.80698 53.7722 6.80698C53.6608 6.80698 53.5206 6.77821 53.2401 6.72066L53.2401 6.72065L53.2401 6.72064L53.24 6.72063C53.1584 6.70389 53.065 6.68471 52.9569 6.6631C52.8917 6.65378 52.8229 6.64266 52.7494 6.63078C52.4444 6.58149 52.0591 6.5192 51.518 6.5192C49.8874 6.5192 49.072 7.19067 49.072 8.96525V18.1259C49.072 18.6457 49.072 18.9094 48.9401 19.0432C48.8043 19.1811 48.5286 19.1811 47.9689 19.1811H47.9689H47.9688C46.8178 19.1811 46.8178 19.1811 46.8178 18.1259V8.72544C46.8178 5.99163 48.4485 4.31297 51.3741 4.31297ZM42.3586 5.70399C42.3586 4.55293 42.3586 4.55292 43.4617 4.55292C44.5648 4.55292 44.5648 4.55293 44.6128 5.70401V18.1261C44.6128 19.1812 44.6128 19.1812 43.4617 19.1812H43.4617H43.4617C42.902 19.1812 42.6263 19.1812 42.4905 19.0434C42.3586 18.9096 42.3586 18.6458 42.3586 18.1261V5.70401V5.70399ZM93.7736 5.2722C94.9247 4.69666 96.6033 4.31297 98.0422 4.31297C101.735 4.31297 103.702 5.84775 103.75 9.54079V16.9748C103.75 17.5024 103.702 17.5983 103.27 17.8861C102.503 18.4617 100.488 19.4209 97.6105 19.4209C93.9654 19.4209 92.0949 17.5024 92.0949 14.7686C92.0949 12.2746 93.9175 10.2123 97.6105 10.2123C98.9535 10.2123 100.057 10.4041 101.495 10.7878V9.63671C101.495 7.38251 100.44 6.42329 98.0422 6.42329C96.7472 6.42329 95.5961 6.80698 94.8288 7.14271C94.493 7.2866 94.2532 7.38252 94.1093 7.38252C93.8695 7.33456 93.7736 7.28659 93.4858 6.61513C93.246 6.13552 93.1981 5.8957 93.1981 5.75181C93.1981 5.60793 93.3419 5.46404 93.7736 5.2722ZM97.8503 17.4065C99.1933 17.4065 100.728 16.8789 101.495 16.3034H101.543V12.7542C100.105 12.3705 99.0973 12.1307 97.8503 12.1307C95.4043 12.1307 94.3012 13.2818 94.3012 14.7686C94.3012 16.4473 95.5002 17.4065 97.8503 17.4065ZM84.5636 4.31297C81.6859 4.31297 79.6715 5.22424 78.8562 5.79978C78.5204 6.03959 78.3766 6.2794 78.3766 6.80697V18.1259V18.126C78.3766 18.6382 78.3766 18.9018 78.5083 19.0374C78.6479 19.1811 78.9354 19.1811 79.5276 19.1811C80.6787 19.1811 80.6787 19.1811 80.6787 18.1259V7.5264C81.3981 7.04678 82.8849 6.56717 84.5156 6.56717C86.578 6.56717 88.2566 7.67029 88.2566 10.2123V18.1739C88.2566 19.229 88.2567 19.229 89.4077 19.229C90 19.229 90.2875 19.229 90.4271 19.0853C90.5588 18.9497 90.5588 18.6862 90.5588 18.1739V10.1163C90.4629 6.42328 88.4485 4.31297 84.5636 4.31297ZM66.4336 5.2722C67.5846 4.69666 69.2633 4.31297 70.7022 4.31297C74.3952 4.31297 76.3616 5.84775 76.4096 9.54079V16.9748C76.4096 17.5024 76.3616 17.5983 75.93 17.8861C75.1626 18.4617 73.1482 19.4209 70.2705 19.4209C66.6254 19.4209 64.7549 17.5024 64.7549 14.7686C64.7549 12.2746 66.5774 10.2123 70.2705 10.2123C71.6134 10.2123 72.7165 10.4041 74.1554 10.7878V9.63671C74.1554 7.38251 73.1002 6.42329 70.7022 6.42329C69.4072 6.42329 68.2561 6.80698 67.4887 7.14271C67.153 7.2866 66.9132 7.38252 66.7693 7.38252C66.5295 7.33456 66.4336 7.28659 66.1458 6.61513C65.906 6.13552 65.858 5.8957 65.858 5.75181C65.858 5.60793 66.0019 5.46404 66.4336 5.2722ZM70.5103 17.4065C71.8532 17.4065 73.388 16.8789 74.1554 16.3034H74.2034V12.7542C72.7645 12.3705 71.7573 12.1307 70.5103 12.1307C68.0643 12.1307 66.9611 13.2818 66.9611 14.7686C66.9611 16.4473 68.1602 17.4065 70.5103 17.4065ZM63.1234 16.736C62.9795 16.736 62.7397 16.784 62.5478 16.8799C61.9243 17.1197 61.3008 17.3116 60.3896 17.3116C58.8548 17.3116 58.1833 16.3523 58.1833 14.9614V6.80797H62.356C63.4591 6.80797 63.4591 6.80796 63.4591 5.75281C63.4591 4.69765 63.4591 4.6497 62.356 4.6497H58.1833V2.29958V2.29949C58.1833 1.69187 58.1833 1.39219 58.0335 1.24438C57.8877 1.10054 57.6 1.10054 57.0323 1.10054C55.9291 1.10054 55.9291 1.10054 55.9291 2.29958V14.8655C55.9291 17.5034 57.2241 19.5178 60.1977 19.5178C61.3488 19.5178 62.356 19.326 63.3632 18.8943C63.7469 18.7504 63.9387 18.6065 63.9387 18.3667C63.9387 18.2708 63.9387 18.2228 63.6989 17.5993L63.6876 17.5599C63.505 16.9203 63.4524 16.736 63.1234 16.736ZM38.472 4.50828C38.5679 4.50828 38.8077 4.55624 39.3353 4.74809C40.1026 5.03586 40.1986 5.13178 40.2945 5.46751C40.2945 5.56343 40.1986 5.89915 40.0547 6.23488L35.0667 18.4171C34.9306 18.7671 34.8496 18.9752 34.6993 19.0989C34.4787 19.2804 34.1088 19.2804 33.1962 19.2804C32.3207 19.2804 31.9608 19.2804 31.7442 19.1042C31.593 18.9811 31.5117 18.7721 31.3736 18.4171L26.3856 6.18693C26.2417 5.80324 26.1458 5.51547 26.1458 5.37158C26.1458 5.13759 26.2828 5.08625 27.0023 4.81657C27.0202 4.80986 27.0385 4.80302 27.0571 4.79604C27.5367 4.60419 27.8245 4.55623 27.9683 4.55623C28.2082 4.55623 28.3041 4.74808 28.448 5.17974L33.1962 16.7385C33.2441 16.8824 33.2441 16.8824 33.2441 16.8824C33.2441 16.8824 33.2441 16.8344 33.2921 16.7385L37.9923 5.13177C38.1362 4.65216 38.1842 4.50828 38.472 4.50828Z" fill="white"/>
    <path d="M18.8116 2.79433L12.5785 18.3938C12.4608 18.5806 12.2984 18.7341 12.1065 18.8401C11.9146 18.946 11.6994 19.0009 11.481 18.9996H7.3057C7.09688 18.9996 6.89662 18.9154 6.74896 18.7654C6.60131 18.6154 6.51836 18.412 6.51836 18.1999C6.51836 17.9879 6.60131 17.7845 6.74896 17.6345C6.89662 17.4845 7.09688 17.4003 7.3057 17.4003H9.49177C9.70533 17.4003 9.91015 17.3141 10.0612 17.1607C10.2122 17.0074 10.297 16.7994 10.297 16.5824C10.297 16.3655 10.2122 16.1575 10.0612 16.0042C9.91015 15.8508 9.70533 15.7646 9.49177 15.7646H6.04118C5.82445 15.7646 5.6166 15.6772 5.46335 15.5215C5.31011 15.3659 5.22401 15.1548 5.22401 14.9347C5.22401 14.7145 5.31011 14.5034 5.46335 14.3478C5.6166 14.1922 5.82445 14.1047 6.04118 14.1047H10.8458C10.9554 14.1115 11.0653 14.0954 11.1686 14.0575C11.2719 14.0195 11.3665 13.9605 11.4465 13.884C11.5266 13.8075 11.5903 13.7153 11.6339 13.6128C11.6775 13.5104 11.7 13.4 11.7 13.2884C11.7 13.1768 11.6775 13.0664 11.6339 12.964C11.5903 12.8615 11.5266 12.7692 11.4465 12.6928C11.3665 12.6163 11.2719 12.5573 11.1686 12.5193C11.0653 12.4814 10.9554 12.4653 10.8458 12.4721H7.19237C7.0811 12.4789 6.96964 12.4625 6.86483 12.424C6.76002 12.3855 6.66408 12.3255 6.58292 12.2479C6.50175 12.1704 6.43708 12.0767 6.39287 11.9728C6.34866 11.8689 6.32586 11.7568 6.32586 11.6436C6.32586 11.5304 6.34866 11.4184 6.39287 11.3145C6.43708 11.2105 6.50175 11.1169 6.58292 11.0393C6.66408 10.9617 6.76002 10.9018 6.86483 10.8632C6.96964 10.8247 7.0811 10.8084 7.19237 10.8152H7.81568C8.02845 10.8152 8.23251 10.7293 8.38296 10.5765C8.53341 10.4237 8.61794 10.2165 8.61794 10.0004C8.61794 9.78428 8.53341 9.57703 8.38296 9.42422C8.23251 9.27142 8.02845 9.18557 7.81568 9.18557H3.39583C3.18068 9.18557 2.97435 9.09877 2.82222 8.94426C2.67009 8.78975 2.58462 8.58019 2.58462 8.36168C2.58462 8.14317 2.67009 7.93361 2.82222 7.7791C2.97435 7.62459 3.18068 7.53778 3.39583 7.53778H10.4431C10.6559 7.53778 10.86 7.45194 11.0104 7.29913C11.1609 7.14633 11.2454 6.93908 11.2454 6.72298C11.2454 6.50688 11.1609 6.29963 11.0104 6.14682C10.86 5.99401 10.6559 5.90817 10.4431 5.90817H8.44496C8.22903 5.90817 8.02193 5.82105 7.86924 5.66597C7.71656 5.51089 7.63078 5.30056 7.63078 5.08124C7.63078 4.86193 7.71656 4.6516 7.86924 4.49652C8.02193 4.34144 8.22903 4.25432 8.44496 4.25432H11.7733C11.978 4.24165 12.1702 4.15013 12.3107 3.99843C12.4513 3.84673 12.5295 3.64629 12.5295 3.438C12.5295 3.22971 12.4513 3.02926 12.3107 2.87757C12.1702 2.72587 11.978 2.63435 11.7733 2.62168H10.3716C10.2627 2.62844 10.1536 2.6125 10.051 2.57484C9.94847 2.53718 9.85456 2.47859 9.77512 2.40269C9.69567 2.32679 9.63237 2.23517 9.58909 2.13348C9.54582 2.0318 9.52349 1.92219 9.52349 1.81141C9.52349 1.70063 9.54582 1.59103 9.58909 1.48934C9.63237 1.38765 9.69567 1.29604 9.77512 1.22013C9.85456 1.14423 9.94847 1.08565 10.051 1.04798C10.1536 1.01032 10.2627 0.994385 10.3716 1.00115H17.9736C18.8892 1.01629 19.256 1.74629 18.8116 2.79433ZM5.73101 11.6573C5.73141 11.5488 5.71071 11.4413 5.67012 11.341C5.62953 11.2407 5.56984 11.1495 5.49447 11.0727C5.41911 10.9959 5.32955 10.9349 5.23094 10.8933C5.13232 10.8517 5.02659 10.8303 4.91981 10.8303H4.70508C4.59422 10.8235 4.48315 10.8398 4.37871 10.8782C4.27427 10.9166 4.17868 10.9763 4.0978 11.0536C4.01692 11.1309 3.95247 11.2242 3.90842 11.3278C3.86437 11.4313 3.84164 11.5429 3.84164 11.6557C3.84164 11.7685 3.86437 11.8802 3.90842 11.9837C3.95247 12.0873 4.01692 12.1806 4.0978 12.2579C4.17868 12.3352 4.27427 12.3949 4.37871 12.4333C4.48315 12.4717 4.59422 12.488 4.70508 12.4812H4.91086C5.01814 12.4824 5.12459 12.4619 5.22405 12.4211C5.3235 12.3802 5.41399 12.3197 5.49026 12.2431C5.56654 12.1664 5.62709 12.0752 5.66842 11.9747C5.70974 11.8741 5.73102 11.7662 5.73101 11.6573ZM6.9836 5.09033C6.98439 4.98137 6.9639 4.87334 6.9233 4.77248C6.8827 4.67162 6.8228 4.57994 6.74708 4.50275C6.67136 4.42556 6.58131 4.3644 6.48215 4.32279C6.383 4.28119 6.2767 4.25997 6.16942 4.26038H2.08955C1.97869 4.25355 1.86762 4.26984 1.76318 4.30823C1.65874 4.34663 1.56315 4.40632 1.48227 4.48364C1.40139 4.56095 1.33694 4.65426 1.29289 4.75781C1.24884 4.86137 1.22611 4.97298 1.22611 5.08579C1.22611 5.19859 1.24884 5.31021 1.29289 5.41376C1.33694 5.51732 1.40139 5.61062 1.48227 5.68794C1.56315 5.76525 1.65874 5.82494 1.76318 5.86334C1.86762 5.90173 1.97869 5.91802 2.08955 5.9112H6.16942C6.38433 5.9112 6.59052 5.82491 6.74304 5.67114C6.89556 5.51737 6.98203 5.30859 6.9836 5.09033ZM6.29468 2.63682H7.48762C7.69078 2.6242 7.88153 2.53334 8.02099 2.38277C8.16045 2.2322 8.23809 2.03327 8.23809 1.82656C8.23809 1.61984 8.16045 1.42091 8.02099 1.27034C7.88153 1.11977 7.69078 1.02891 7.48762 1.01629H6.29468C6.09153 1.02891 5.90077 1.11977 5.76131 1.27034C5.62185 1.42091 5.54421 1.61984 5.54421 1.82656C5.54421 2.03327 5.62185 2.2322 5.76131 2.38277C5.90077 2.53334 6.09153 2.6242 6.29468 2.63682ZM4.8542 1.83716C4.8542 1.62186 4.76999 1.41538 4.6201 1.26314C4.4702 1.11091 4.26691 1.02538 4.05493 1.02538H0.750473C0.54732 1.038 0.35656 1.12886 0.217103 1.27943C0.0776471 1.43 0 1.62893 0 1.83564C0 2.04236 0.0776471 2.24129 0.217103 2.39186C0.35656 2.54243 0.54732 2.63329 0.750473 2.64591H4.05493C4.26639 2.64591 4.46924 2.5608 4.61905 2.40922C4.76885 2.25763 4.85341 2.05193 4.8542 1.83716Z" fill="url(#paint0_linear)"/>
    <defs>
        <linearGradient id="paint0_linear" x1="1.10537" y1="5.36597" x2="17.8877" y2="11.8882" gradientUnits="userSpaceOnUse">
            <stop stop-color="#FFE600"/>
            <stop offset="0.5" stop-color="#47C647"/>
            <stop offset="0.87" stop-color="#1E97BC"/>
        </linearGradient>
    </defs>
</svg>
