<svg xmlns="http://www.w3.org/2000/svg" xmlns:xlink="http://www.w3.org/1999/xlink" width="19" height="18" viewBox="0 0 19 18" >
    <defs>
        <linearGradient id="paint0_linear" x1="1.10537" y1="4.36597" x2="17.8877" y2="10.8882" gradientUnits="userSpaceOnUse">
            <stop stop-color="#FFE600"/>
            <stop offset="0.5" stop-color="#47C647"/>
            <stop offset="0.87" stop-color="#1E97BC"/>
        </linearGradient>
    </defs>
    <path d="M18.8116 1.79433L12.5785 17.3938C12.4608 17.5806 12.2984 17.7341 12.1065 17.8401C11.9146 17.946 11.6994 18.0009 11.481 17.9996H7.3057C7.09688 17.9996 6.89662 17.9154 6.74896 17.7654C6.60131 17.6154 6.51836 17.412 6.51836 17.1999C6.51836 16.9879 6.60131 16.7845 6.74896 16.6345C6.89662 16.4845 7.09688 16.4003 7.3057 16.4003H9.49177C9.70533 16.4003 9.91015 16.3141 10.0612 16.1607C10.2122 16.0074 10.297 15.7994 10.297 15.5824C10.297 15.3655 10.2122 15.1575 10.0612 15.0042C9.91015 14.8508 9.70533 14.7646 9.49177 14.7646H6.04118C5.82445 14.7646 5.6166 14.6772 5.46335 14.5215C5.31011 14.3659 5.22401 14.1548 5.22401 13.9347C5.22401 13.7145 5.31011 13.5034 5.46335 13.3478C5.6166 13.1922 5.82445 13.1047 6.04118 13.1047H10.8458C10.9554 13.1115 11.0653 13.0954 11.1686 13.0575C11.2719 13.0195 11.3665 12.9605 11.4465 12.884C11.5266 12.8075 11.5903 12.7153 11.6339 12.6128C11.6775 12.5104 11.7 12.4 11.7 12.2884C11.7 12.1768 11.6775 12.0664 11.6339 11.964C11.5903 11.8615 11.5266 11.7692 11.4465 11.6928C11.3665 11.6163 11.2719 11.5573 11.1686 11.5193C11.0653 11.4814 10.9554 11.4653 10.8458 11.4721H7.19237C7.0811 11.4789 6.96964 11.4625 6.86483 11.424C6.76002 11.3855 6.66408 11.3255 6.58292 11.2479C6.50175 11.1704 6.43708 11.0767 6.39287 10.9728C6.34866 10.8689 6.32586 10.7568 6.32586 10.6436C6.32586 10.5304 6.34866 10.4184 6.39287 10.3145C6.43708 10.2105 6.50175 10.1169 6.58292 10.0393C6.66408 9.9617 6.76002 9.90179 6.86483 9.86325C6.96964 9.82471 7.0811 9.80835 7.19237 9.81519H7.81568C8.02845 9.81519 8.23251 9.72934 8.38296 9.57654C8.53341 9.42373 8.61794 9.21648 8.61794 9.00038C8.61794 8.78428 8.53341 8.57703 8.38296 8.42422C8.23251 8.27142 8.02845 8.18557 7.81568 8.18557H3.39583C3.18068 8.18557 2.97435 8.09877 2.82222 7.94426C2.67009 7.78975 2.58462 7.58019 2.58462 7.36168C2.58462 7.14317 2.67009 6.93361 2.82222 6.7791C2.97435 6.62459 3.18068 6.53778 3.39583 6.53778H10.4431C10.6559 6.53778 10.86 6.45194 11.0104 6.29913C11.1609 6.14633 11.2454 5.93908 11.2454 5.72298C11.2454 5.50688 11.1609 5.29963 11.0104 5.14682C10.86 4.99401 10.6559 4.90817 10.4431 4.90817H8.44496C8.22903 4.90817 8.02193 4.82105 7.86924 4.66597C7.71656 4.51089 7.63078 4.30056 7.63078 4.08124C7.63078 3.86193 7.71656 3.6516 7.86924 3.49652C8.02193 3.34144 8.22903 3.25432 8.44496 3.25432H11.7733C11.978 3.24165 12.1702 3.15013 12.3107 2.99843C12.4513 2.84673 12.5295 2.64629 12.5295 2.438C12.5295 2.22971 12.4513 2.02926 12.3107 1.87757C12.1702 1.72587 11.978 1.63435 11.7733 1.62168H10.3716C10.2627 1.62844 10.1536 1.6125 10.051 1.57484C9.94847 1.53718 9.85456 1.47859 9.77512 1.40269C9.69567 1.32679 9.63237 1.23517 9.58909 1.13348C9.54582 1.0318 9.52349 0.922191 9.52349 0.811412C9.52349 0.700633 9.54582 0.591026 9.58909 0.489339C9.63237 0.387652 9.69567 0.296037 9.77512 0.220134C9.85456 0.14423 9.94847 0.0856454 10.051 0.0479846C10.1536 0.0103238 10.2627 -0.00561538 10.3716 0.00114836H17.9736C18.8892 0.0162935 19.256 0.746288 18.8116 1.79433ZM5.73101 10.6573C5.73141 10.5488 5.71071 10.4413 5.67012 10.341C5.62953 10.2407 5.56984 10.1495 5.49447 10.0727C5.41911 9.99589 5.32955 9.93493 5.23094 9.89334C5.13232 9.85174 5.02659 9.83033 4.91981 9.83033H4.70508C4.59422 9.82351 4.48315 9.83979 4.37871 9.87819C4.27427 9.91658 4.17868 9.97628 4.0978 10.0536C4.01692 10.1309 3.95247 10.2242 3.90842 10.3278C3.86437 10.4313 3.84164 10.5429 3.84164 10.6557C3.84164 10.7685 3.86437 10.8802 3.90842 10.9837C3.95247 11.0873 4.01692 11.1806 4.0978 11.2579C4.17868 11.3352 4.27427 11.3949 4.37871 11.4333C4.48315 11.4717 4.59422 11.488 4.70508 11.4812H4.91086C5.01814 11.4824 5.12459 11.4619 5.22405 11.4211C5.3235 11.3802 5.41399 11.3197 5.49026 11.2431C5.56654 11.1664 5.62709 11.0752 5.66842 10.9747C5.70974 10.8741 5.73102 10.7662 5.73101 10.6573ZM6.9836 4.09033C6.98439 3.98137 6.9639 3.87334 6.9233 3.77248C6.8827 3.67162 6.8228 3.57994 6.74708 3.50275C6.67136 3.42556 6.58131 3.3644 6.48215 3.32279C6.383 3.28119 6.2767 3.25997 6.16942 3.26038H2.08955C1.97869 3.25355 1.86762 3.26984 1.76318 3.30823C1.65874 3.34663 1.56315 3.40632 1.48227 3.48364C1.40139 3.56095 1.33694 3.65426 1.29289 3.75781C1.24884 3.86137 1.22611 3.97298 1.22611 4.08579C1.22611 4.19859 1.24884 4.31021 1.29289 4.41376C1.33694 4.51732 1.40139 4.61062 1.48227 4.68794C1.56315 4.76525 1.65874 4.82494 1.76318 4.86334C1.86762 4.90173 1.97869 4.91802 2.08955 4.9112H6.16942C6.38433 4.9112 6.59052 4.82491 6.74304 4.67114C6.89556 4.51737 6.98203 4.30859 6.9836 4.09033ZM6.29468 1.63682H7.48762C7.69078 1.6242 7.88153 1.53334 8.02099 1.38277C8.16045 1.2322 8.23809 1.03327 8.23809 0.826557C8.23809 0.61984 8.16045 0.420909 8.02099 0.270342C7.88153 0.119775 7.69078 0.0289146 7.48762 0.0162932H6.29468C6.09153 0.0289146 5.90077 0.119775 5.76131 0.270342C5.62185 0.420909 5.54421 0.61984 5.54421 0.826557C5.54421 1.03327 5.62185 1.2322 5.76131 1.38277C5.90077 1.53334 6.09153 1.6242 6.29468 1.63682ZM4.8542 0.837159C4.8542 0.621861 4.76999 0.415382 4.6201 0.263144C4.4702 0.110906 4.26691 0.02538 4.05493 0.02538H0.750473C0.54732 0.0380013 0.35656 0.128863 0.217103 0.27943C0.0776471 0.429997 0 0.628927 0 0.835644C0 1.04236 0.0776471 1.24129 0.217103 1.39186C0.35656 1.54243 0.54732 1.63329 0.750473 1.64591H4.05493C4.26639 1.64591 4.46924 1.5608 4.61905 1.40922C4.76885 1.25763 4.85341 1.05193 4.8542 0.837159Z"
          fill="url(#paint0_linear)"/>
</svg>
