<svg width="20" height="20" viewBox="0 0 20 20" fill="none" xmlns="http://www.w3.org/2000/svg">
    <g opacity="0.8">
        <path d="M5.43133 6.26354C5.7511 4.02729 7.67551 2.30775 10 2.30775C11.4183 2.30775 12.688 2.94721 13.5351 3.95526C12.3655 4.19406 11.2675 4.82138 10.4516 5.81641C10.1822 6.14493 10.2302 6.62961 10.5587 6.89898C10.8872 7.16835 11.3719 7.1204 11.6413 6.79188C12.4389 5.81906 13.6142 5.33829 14.7813 5.38776L14.8279 5.3903C16.3401 5.47255 17.6202 6.42924 18.1715 7.76323C18.3381 8.168 18.4337 8.59714 18.4564 9.03072C18.4598 9.09699 18.4615 9.16371 18.4615 9.23083C18.4615 9.52122 18.4294 9.8041 18.3684 10.0761C18.3596 10.115 18.3503 10.1536 18.3405 10.192C18.2052 10.7173 17.9562 11.2222 17.5896 11.6693L17.5798 11.6815C16.8743 12.5339 15.8083 13.077 14.6154 13.077C14.1906 13.077 13.8462 13.4214 13.8462 13.8462C13.8462 14.271 14.1906 14.6154 14.6154 14.6154C17.1362 14.6154 19.2524 12.8831 19.8387 10.5442C19.8503 10.4977 19.8614 10.451 19.8718 10.404C19.9764 9.93393 20.0167 9.45398 19.9942 8.9776C19.9246 7.50822 19.2567 6.07289 18.0296 5.06672C17.2344 4.4147 16.3085 4.02828 15.3594 3.89682C14.3036 2.03046 12.2997 0.769287 10 0.769287C7.11913 0.769287 4.70175 2.74854 4.03099 5.42132C1.75788 5.7085 0 7.64878 0 10.0001C0 12.5493 2.06636 14.6154 4.61539 14.6154C5.04022 14.6154 5.38462 14.271 5.38462 13.8462C5.38462 13.4214 5.04022 13.077 4.61539 13.077C2.91598 13.077 1.53846 11.6996 1.53846 10.0001C1.53846 8.30052 2.91598 6.92314 4.61537 6.92314L4.62668 6.92335L4.62817 6.92338C4.63649 6.92355 4.65255 6.92389 4.66985 6.92389H5.33691L5.43133 6.26354Z" fill="white"/>
        <path d="M11.3516 8.4616L14.2033 11.3132L13.1154 12.4011L12.1208 11.4065V14.6154H10.5823V11.4066L9.58786 12.4011L8.5 11.3132L11.3516 8.4616Z" fill="white"/>
        <path d="M8.14838 19.2308L5.29673 16.3792L6.38459 15.2913L7.37902 16.2858V13.077H8.91748V16.286L9.91215 15.2914L11 16.3792L8.14838 19.2308Z" fill="white"/>
    </g>
</svg>
