<svg width="22" height="22" viewBox="0 0 22 22" fill="none" xmlns="http://www.w3.org/2000/svg">
    <g opacity="0.8">
        <path fill-rule="evenodd" clip-rule="evenodd" d="M19.5686 0.250681C19.7772 0.385351 19.9032 0.61645 19.9032 0.864471V7.89214L21.0941 8.1754C21.552 8.3576 21.9178 8.7237 21.9178 9.18005V10.8249C21.9178 11.2821 21.6432 11.7393 21.0941 11.8304L19.9032 12.1137V19.1414C19.9032 19.3894 19.7772 19.6205 19.5686 19.7552C19.36 19.8898 19.0973 19.9097 18.8707 19.8079L9.86072 15.7601H8.92077V20.9676C8.92077 21.3713 8.59301 21.6985 8.18869 21.6985H5.44287C5.03856 21.6985 4.7108 21.3713 4.7108 20.9676V15.6123C2.11897 15.0048 0.202072 12.6063 0.135112 9.96321C0.133911 9.94609 0.133301 9.92882 0.133301 9.9114V9.82029C0.133301 9.80256 0.133933 9.78498 0.135176 9.76757C0.216384 6.65749 2.92317 4.24579 5.99119 4.24579H9.86071L18.8707 0.197919C19.0973 0.096145 19.36 0.116011 19.5686 0.250681ZM9.28576 5.70763H5.99119C3.63012 5.70763 1.62364 7.58308 1.59771 9.86662C1.62343 12.211 3.59821 14.2982 5.99119 14.2982H9.28576V5.70763ZM10.7499 14.5565L18.4391 18.011V1.99488L10.7499 5.44933V14.5565ZM6.17495 20.2367V16.2156H7.45662V20.2367H6.17495Z" fill="white"/>
    </g>
</svg>
