<svg width="21" height="16" viewBox="0 0 21 16" fill="none" xmlns="http://www.w3.org/2000/svg">
    <path d="M17.1691 3.7071L14.5478 1.08579C14.1727 0.710719 13.664 0.500003 13.1336 0.5H4.75488C3.6503 0.5 2.75488 1.39542 2.75488 2.5V13.5C2.75488 14.6046 3.6503 15.5 4.75488 15.5H15.7549C16.8595 15.5 17.7549 14.6046 17.7549 13.5V5.12131C17.7549 4.59088 17.5442 4.08217 17.1691 3.7071ZM10.2549 12.5C9.42646 12.5 8.75488 11.8284 8.75488 11C8.75488 10.1716 9.42646 9.5 10.2549 9.5C11.0833 9.5 11.7549 10.1716 11.7549 11C11.7549 11.8284 11.0833 12.5 10.2549 12.5ZM12.6827 3.46332L12.6827 3.4634C12.6827 3.46337 12.6827 3.46334 12.6827 3.46332ZM5.75488 3.5H12.7193L12.7549 3.53554V6.5H5.75488V3.5Z" fill="#19B382" stroke="white"/>
</svg>
