<svg width="22" height="22" viewBox="0 0 22 22" fill="none" xmlns="http://www.w3.org/2000/svg">
    <g opacity="0.8">
        <path fill-rule="evenodd" clip-rule="evenodd" d="M11.7867 1.13354C6.44356 1.13354 2.11715 5.50258 2.11715 10.8144C2.11715 12.2705 2.46433 13.6321 2.98846 14.8208C2.45687 16.6302 1.10979 17.4892 0.643933 17.6852C0.557492 17.7216 0.479021 17.774 0.412837 17.8396C0.212149 18.0387 0.133301 18.2972 0.133301 18.5126C0.133301 18.6214 0.153121 18.7911 0.258466 18.9595C0.343587 19.0955 0.481867 19.2198 0.661699 19.2841C2.0785 20.0066 3.65358 20.1613 5.00638 20.0914C6.20927 20.0293 7.28303 19.7874 7.9995 19.5645C9.14295 20.071 10.4341 20.3165 11.7867 20.3165C17.1299 20.3165 21.4563 15.9475 21.4563 10.6357C21.4563 8.18688 20.3638 5.8719 18.8091 4.15286L18.2637 4.62915L18.7796 4.12216C17.9286 3.28588 16.945 2.50385 15.7392 2.00505C14.537 1.41922 13.1554 1.13354 11.7867 1.13354ZM15.1545 3.31909C16.1212 3.71513 16.9514 4.35583 17.7325 5.12112C19.0885 6.62725 19.997 8.60834 19.997 10.6357C19.997 15.1839 16.2954 18.8826 11.7867 18.8826C10.514 18.8826 9.35134 18.6323 8.37268 18.1515C8.19471 18.064 7.98811 18.0518 7.80075 18.1176C7.21979 18.3217 6.1496 18.5964 4.9298 18.6594C4.04807 18.7049 3.11991 18.6383 2.25137 18.377C3.08383 17.7307 4.05523 16.6203 4.46903 14.9263C4.50731 14.7695 4.49074 14.6047 4.422 14.4584C3.9116 13.3719 3.57641 12.1295 3.57641 10.8144C3.57641 6.26623 7.27801 2.56753 11.7867 2.56753C12.9643 2.56753 14.1271 2.81614 15.109 3.29861C15.1239 3.30595 15.1391 3.31278 15.1545 3.31909ZM10.1927 12.1632V12.8897H12.4831V12.4056C12.4831 12.2287 12.5553 12.1162 12.6468 11.9734C12.6803 11.9212 12.7164 11.8649 12.7525 11.7999L13.4262 11.195C13.5609 11.0738 13.6956 10.983 13.8304 10.8922C13.9651 10.8014 14.0998 10.7106 14.2345 10.5893L14.2373 10.5869C14.5058 10.3453 14.7739 10.104 14.9082 9.74202C15.0429 9.49958 15.1776 9.01551 15.1776 8.65226C15.1776 7.80411 14.7734 7.19841 14.0998 6.71435C13.4262 6.23028 12.6178 5.98784 11.6747 5.98784C10.3275 5.98784 9.24966 6.35192 8.4413 7.0776L9.92329 8.65226C10.4622 8.28818 11.0011 8.04656 11.4053 8.04656C11.7251 8.04656 11.8762 8.1222 12.0589 8.21363C12.107 8.23775 12.1574 8.26296 12.2136 8.28818C12.2497 8.35314 12.2858 8.40943 12.3193 8.46168C12.4109 8.60442 12.4831 8.717 12.4831 8.89388C12.4831 9.07075 12.4109 9.18333 12.3193 9.32608C12.2858 9.37832 12.2497 9.43461 12.2136 9.49958C12.1728 9.53622 12.1319 9.58406 12.0873 9.63631C11.9848 9.75628 11.8624 9.89948 11.6747 9.98364C11.6191 10.0335 11.5405 10.0835 11.4485 10.1421C11.3176 10.2255 11.1593 10.3262 11.0011 10.4685C10.9339 10.589 10.8332 10.7097 10.7324 10.8305C10.6311 10.952 10.5297 11.0735 10.4622 11.195C10.434 11.2711 10.4058 11.3418 10.3788 11.4094C10.277 11.6648 10.1927 11.876 10.1927 12.1632ZM10.3275 13.8586V15.9174H12.7525V13.8586H10.3275Z" fill="white"/>
    </g>
</svg>
