<svg width="17" height="20" viewBox="0 0 17 20" fill="none" xmlns="http://www.w3.org/2000/svg">
    <path d="M6.30758 15.1154C5.90399 15.1154 5.57681 15.4426 5.57681 15.8462C5.57681 16.2497 5.90399 16.5769 6.30758 16.5769H7.03835C7.44194 16.5769 7.76912 16.2497 7.76912 15.8462C7.76912 15.4426 7.44194 15.1154 7.03835 15.1154H6.30758Z" fill="white"/>
    <path d="M9.23066 7.07692C9.23066 6.67333 9.55783 6.34615 9.96143 6.34615H10.6922C11.0958 6.34615 11.423 6.67333 11.423 7.07692C11.423 7.48052 11.0958 7.80769 10.6922 7.80769H9.96143C9.55783 7.80769 9.23066 7.48052 9.23066 7.07692Z" fill="white"/>
    <path fill-rule="evenodd" clip-rule="evenodd" d="M0.461426 19.5V3.42308C0.461426 1.80871 1.77013 0.5 3.3845 0.5H13.6153C15.2296 0.5 16.5384 1.80871 16.5384 3.42308V19.5H0.461426ZM3.3845 1.96154H13.6153C14.4225 1.96154 15.0768 2.61589 15.0768 3.42308V18.0385H13.6153V4.88462C13.6153 4.07743 12.9609 3.42308 12.1537 3.42308H4.84604C4.03886 3.42308 3.3845 4.07743 3.3845 4.88461V18.0385H1.92296V3.42308C1.92296 2.61589 2.57732 1.96154 3.3845 1.96154ZM4.84604 18.0385H12.1537V13.6538H4.84604V18.0385ZM12.1537 10.7308V12.1923H4.84604V10.7308H12.1537ZM12.1537 9.26923V4.88462H4.84604V9.26923H12.1537Z" fill="white"/>
</svg>
