<svg width="78" height="20" viewBox="0 0 78 20" fill="none" xmlns="http://www.w3.org/2000/svg">
    <path fill-rule="evenodd" clip-rule="evenodd" d="M17.4608 0.0449219C16.1179 0.0449219 16.1179 0.0449307 16.1179 1.38784V1.38786V1.38788C16.1179 2.09144 16.1179 2.43911 16.2917 2.61091C16.4615 2.77874 16.7972 2.77874 17.4608 2.77874C18.8038 2.77874 18.8038 2.77874 18.8038 1.38786C18.8038 0.0449307 18.8038 0.0449219 17.4608 0.0449219ZM25.3743 4.31297C26.3336 4.31297 27.2448 4.45685 27.8683 4.60074C28.3 4.74462 28.7316 4.93648 28.6837 5.17628C28.6837 5.25674 28.65 5.3372 28.4976 5.70065L28.497 5.70191C28.4679 5.77149 28.4344 5.85142 28.3959 5.94367C28.1561 6.6631 28.0602 6.80698 27.7724 6.80698C27.661 6.80698 27.5208 6.77821 27.2403 6.72066L27.2403 6.72065L27.2403 6.72064L27.2402 6.72063C27.1586 6.70389 27.0651 6.68471 26.9571 6.6631C26.8919 6.65378 26.823 6.64266 26.7496 6.63078C26.4446 6.58149 26.0593 6.5192 25.5182 6.5192C23.8875 6.5192 23.0722 7.19067 23.0722 8.96525V18.1259C23.0722 18.6457 23.0722 18.9094 22.9403 19.0432C22.8045 19.1811 22.5288 19.1811 21.9691 19.1811H21.9691H21.969C20.818 19.1811 20.818 19.1811 20.818 18.1259V8.72544C20.818 5.99163 22.4487 4.31297 25.3743 4.31297ZM16.3588 5.70399C16.3588 4.55293 16.3588 4.55292 17.4619 4.55292C18.565 4.55292 18.565 4.55293 18.613 5.70401V18.1261C18.613 19.1812 18.613 19.1812 17.4619 19.1812H17.4619H17.4619C16.9022 19.1812 16.6265 19.1812 16.4906 19.0434C16.3588 18.9096 16.3588 18.6458 16.3588 18.1261V5.70401V5.70399ZM67.7738 5.2722C68.9249 4.69666 70.6035 4.31297 72.0424 4.31297C75.7354 4.31297 77.7018 5.84775 77.7498 9.54079V16.9748C77.7498 17.5024 77.7018 17.5983 77.2702 17.8861C76.5028 18.4617 74.4884 19.4209 71.6107 19.4209C67.9656 19.4209 66.0951 17.5024 66.0951 14.7686C66.0951 12.2746 67.9177 10.2123 71.6107 10.2123C72.9536 10.2123 74.0567 10.4041 75.4956 10.7878V9.63671C75.4956 7.38251 74.4405 6.42329 72.0424 6.42329C70.7474 6.42329 69.5963 6.80698 68.8289 7.14271C68.4932 7.2866 68.2534 7.38252 68.1095 7.38252C67.8697 7.33456 67.7738 7.28659 67.486 6.61513C67.2462 6.13552 67.1982 5.8957 67.1982 5.75181C67.1982 5.60793 67.3421 5.46404 67.7738 5.2722ZM71.8505 17.4065C73.1934 17.4065 74.7282 16.8789 75.4956 16.3034H75.5436V12.7542C74.1047 12.3705 73.0975 12.1307 71.8505 12.1307C69.4045 12.1307 68.3013 13.2818 68.3013 14.7686C68.3013 16.4473 69.5004 17.4065 71.8505 17.4065ZM58.5638 4.31297C55.6861 4.31297 53.6717 5.22424 52.8564 5.79978C52.5206 6.03959 52.3767 6.2794 52.3767 6.80697V18.1259V18.126C52.3767 18.6382 52.3767 18.9018 52.5085 19.0374C52.6481 19.1811 52.9356 19.1811 53.5278 19.1811C54.6789 19.1811 54.6789 19.1811 54.6789 18.1259V7.5264C55.3983 7.04678 56.8851 6.56717 58.5158 6.56717C60.5782 6.56717 62.2568 7.67029 62.2568 10.2123V18.1739C62.2568 19.229 62.2568 19.229 63.4079 19.229C64.0001 19.229 64.2877 19.229 64.4273 19.0853C64.559 18.9497 64.559 18.6862 64.559 18.1739V10.1163C64.4631 6.42328 62.4487 4.31297 58.5638 4.31297ZM40.4338 5.2722C41.5848 4.69666 43.2635 4.31297 44.7023 4.31297C48.3954 4.31297 50.3618 5.84775 50.4098 9.54079V16.9748C50.4098 17.5024 50.3618 17.5983 49.9301 17.8861C49.1628 18.4617 47.1484 19.4209 44.2707 19.4209C40.6256 19.4209 38.7551 17.5024 38.7551 14.7686C38.7551 12.2746 40.5776 10.2123 44.2707 10.2123C45.6136 10.2123 46.7167 10.4041 48.1556 10.7878V9.63671C48.1556 7.38251 47.1004 6.42329 44.7023 6.42329C43.4074 6.42329 42.2563 6.80698 41.4889 7.14271C41.1532 7.2866 40.9134 7.38252 40.7695 7.38252C40.5297 7.33456 40.4338 7.28659 40.146 6.61513C39.9062 6.13552 39.8582 5.8957 39.8582 5.75181C39.8582 5.60793 40.0021 5.46404 40.4338 5.2722ZM44.5105 17.4065C45.8534 17.4065 47.3882 16.8789 48.1556 16.3034H48.2035V12.7542C46.7647 12.3705 45.7575 12.1307 44.5105 12.1307C42.0644 12.1307 40.9613 13.2818 40.9613 14.7686C40.9613 16.4473 42.1604 17.4065 44.5105 17.4065ZM37.1235 16.736C36.9797 16.736 36.7399 16.784 36.548 16.8799C35.9245 17.1197 35.301 17.3116 34.3897 17.3116C32.855 17.3116 32.1835 16.3523 32.1835 14.9614V6.80797H36.3562C37.4593 6.80797 37.4593 6.80796 37.4593 5.75281C37.4593 4.69765 37.4593 4.6497 36.3562 4.6497H32.1835V2.29958V2.29949C32.1835 1.69187 32.1835 1.39219 32.0337 1.24438C31.8879 1.10054 31.6001 1.10054 31.0324 1.10054C29.9293 1.10054 29.9293 1.10054 29.9293 2.29958V14.8655C29.9293 17.5034 31.2243 19.5178 34.1979 19.5178C35.349 19.5178 36.3562 19.326 37.3633 18.8943C37.747 18.7504 37.9389 18.6065 37.9389 18.3667C37.9389 18.2708 37.9389 18.2228 37.6991 17.5993L37.6878 17.5599C37.5052 16.9203 37.4526 16.736 37.1235 16.736ZM12.4721 4.50828C12.5681 4.50828 12.8079 4.55624 13.3354 4.74809C14.1028 5.03586 14.1988 5.13178 14.2947 5.46751C14.2947 5.56343 14.1988 5.89915 14.0549 6.23488L9.06685 18.4171C8.93075 18.7671 8.84983 18.9752 8.69948 19.0989C8.47893 19.2804 8.10899 19.2804 7.19636 19.2804C6.32091 19.2804 5.96094 19.2804 5.74439 19.1042C5.59316 18.9811 5.51187 18.7721 5.37382 18.4171L0.385804 6.18693C0.241919 5.80324 0.145996 5.51547 0.145996 5.37158C0.145996 5.13759 0.282991 5.08625 1.00249 4.81657C1.02039 4.80986 1.03865 4.80302 1.05728 4.79604C1.53689 4.60419 1.82465 4.55623 1.96853 4.55623C2.20834 4.55623 2.30426 4.74808 2.44815 5.17974L7.19636 16.7385C7.24432 16.8824 7.24431 16.8824 7.24431 16.8824C7.24431 16.8824 7.24433 16.8344 7.29229 16.7385L11.9925 5.13177C12.1364 4.65216 12.1844 4.50828 12.4721 4.50828Z" fill="white"/>
</svg>
